<svg width="58" height="58" viewBox="0 0 58 58" fill="none" xmlns="http://www.w3.org/2000/svg">
<path fill-rule="evenodd" clip-rule="evenodd" d="M50.75 29C50.75 41.0122 41.0122 50.75 29 50.75C16.9878 50.75 7.25 41.0122 7.25 29C7.25 16.9878 16.9878 7.25 29 7.25C41.0122 7.25 50.75 16.9878 50.75 29ZM29 43.5C27.6653 43.5 26.5833 42.418 26.5833 41.0833V31.4167H16.9167C15.582 31.4167 14.5 30.3347 14.5 29C14.5 27.6653 15.582 26.5833 16.9167 26.5833H26.5833V16.9167C26.5833 15.582 27.6653 14.5 29 14.5C30.3347 14.5 31.4167 15.582 31.4167 16.9167V26.5833H41.0833C42.418 26.5833 43.5 27.6653 43.5 29C43.5 30.3347 42.418 31.4167 41.0833 31.4167H31.4167V41.0833C31.4167 42.418 30.3347 43.5 29 43.5Z" fill="#222222"/>
</svg>
