<svg width="50" height="50" viewBox="0 0 50 50" fill="none" xmlns="http://www.w3.org/2000/svg">
<path d="M25 12.5V39.5833" stroke="#33363F" stroke-width="4.16667" stroke-linecap="round"/>
<path d="M43.75 12.5L43.75 39.5833" stroke="#33363F" stroke-width="4.16667" stroke-linecap="round"/>
<path d="M6.25 12.5L6.25 39.5833" stroke="#33363F" stroke-width="4.16667" stroke-linecap="round"/>
<path d="M43.75 39.5833C43.75 39.5833 41.6667 35.4167 34.375 35.4167C27.0833 35.4167 25 39.5833 25 39.5833" stroke="#33363F" stroke-width="4.16667" stroke-linecap="round"/>
<path d="M25 39.5833C25 39.5833 22.9167 35.4167 15.625 35.4167C8.33333 35.4167 6.25 39.5833 6.25 39.5833" stroke="#33363F" stroke-width="4.16667" stroke-linecap="round"/>
<path d="M43.75 12.5C43.75 12.5 41.6667 8.33333 34.375 8.33333C27.0833 8.33333 25 12.5 25 12.5" stroke="#33363F" stroke-width="4.16667" stroke-linecap="round"/>
<path d="M25 12.5C25 12.5 22.9167 8.33333 15.625 8.33333C8.33333 8.33333 6.25 12.5 6.25 12.5" stroke="#33363F" stroke-width="4.16667" stroke-linecap="round"/>
</svg>
