<svg width="62" height="62" viewBox="0 0 62 62" fill="none" xmlns="http://www.w3.org/2000/svg">
<path d="M7.75 25.4565C7.75 22.8112 9.89445 20.6667 12.5398 20.6667V20.6667C14.354 20.6667 16.0125 19.6417 16.8239 18.019L18.9444 13.7778C19.2285 13.2097 19.3705 12.9256 19.5316 12.6786C20.3719 11.3895 21.7431 10.542 23.2719 10.3669C23.5649 10.3334 23.8825 10.3334 24.5177 10.3334H37.4823C38.1175 10.3334 38.4351 10.3334 38.7281 10.3669C40.2569 10.542 41.6281 11.3895 42.4684 12.6786C42.6295 12.9256 42.7715 13.2097 43.0556 13.7778L45.1761 18.019C45.9875 19.6417 47.646 20.6667 49.4602 20.6667V20.6667C52.1055 20.6667 54.25 22.8112 54.25 25.4565V38.381C54.25 43.56 54.25 46.1494 53.0621 48.04C52.4427 49.0258 51.6091 49.8594 50.6232 50.4788C48.7327 51.6667 46.1433 51.6667 40.9643 51.6667H21.0357C15.8567 51.6667 13.2673 51.6667 11.3768 50.4788C10.3909 49.8594 9.55733 49.0258 8.93789 48.04C7.75 46.1494 7.75 43.56 7.75 38.381V25.4565Z" stroke="#222222" stroke-width="5.16667"/>
<circle cx="31" cy="33.5833" r="7.75" stroke="#222222" stroke-width="5.16667"/>
</svg>
