<svg width="84" height="84" viewBox="0 0 84 84" fill="none" xmlns="http://www.w3.org/2000/svg">
<path fill-rule="evenodd" clip-rule="evenodd" d="M42 7C33.4569 7 26.1128 12.101 22.8331 19.4087C22.5404 20.0608 22.3449 20.4959 22.1972 20.8065C22.1608 20.883 22.1314 20.9433 22.1079 20.9905C22.088 20.9913 22.0651 20.9922 22.0387 20.993C21.8161 20.9996 21.5109 21 21 21C13.268 21 7 27.268 7 35C7 42.732 13.268 49 21 49H21.6005L28.6005 42H21C17.134 42 14 38.866 14 35C14 31.134 17.134 28 21 28C21.0729 28 21.1474 28.0002 21.2232 28.0003L21.2247 28.0003C21.9512 28.002 22.797 28.0039 23.5001 27.8624C24.2439 27.7127 25.1039 27.4642 25.949 26.9172C26.7941 26.3701 27.3729 25.6873 27.8141 25.07C28.118 24.6447 28.3577 24.1516 28.519 23.8123C28.7038 23.4236 28.9311 22.9172 29.2022 22.3132L29.2193 22.2749C31.4115 17.3905 36.3136 14 42 14C47.6864 14 52.5885 17.3905 54.7807 22.2749L54.7977 22.3129L54.7979 22.3133C55.0689 22.9172 55.2962 23.4236 55.481 23.8123C55.6423 24.1516 55.882 24.6447 56.1859 25.07C56.6271 25.6873 57.2059 26.3701 58.051 26.9172C58.8961 27.4642 59.7561 27.7127 60.4999 27.8624C61.203 28.0039 62.0488 28.002 62.7753 28.0003L62.7768 28.0003C62.8526 28.0002 62.9271 28 63 28C66.866 28 70 31.134 70 35C70 38.866 66.866 42 63 42H55.3995L62.3995 49H63C70.732 49 77 42.732 77 35C77 27.268 70.732 21 63 21C62.4891 21 62.1839 20.9996 61.9613 20.993C61.9349 20.9922 61.912 20.9913 61.8921 20.9905C61.8686 20.9433 61.8392 20.883 61.8028 20.8065C61.6551 20.4959 61.4596 20.0608 61.1669 19.4087C57.8872 12.101 50.5431 7 42 7ZM22.0414 21.1179L22.0421 21.1168L22.0422 21.1167C22.0417 21.1175 22.0414 21.1179 22.0414 21.1179ZM61.9585 21.1177C61.9587 21.1181 61.9585 21.1178 61.9578 21.1167L61.9579 21.1167L61.9585 21.1177Z" fill="#33363F"/>
<path d="M42 42L39.5251 39.5251L42 37.0503L44.4749 39.5251L42 42ZM45.5 73.5C45.5 75.433 43.933 77 42 77C40.067 77 38.5 75.433 38.5 73.5L45.5 73.5ZM25.5251 53.5251L39.5251 39.5251L44.4749 44.4749L30.4749 58.4749L25.5251 53.5251ZM44.4749 39.5251L58.4749 53.5251L53.5251 58.4749L39.5251 44.4749L44.4749 39.5251ZM45.5 42L45.5 73.5L38.5 73.5L38.5 42L45.5 42Z" fill="#33363F"/>
</svg>
